# WaveFront *.obj file (generated by CINEMA 4D)

mtllib ./glass.mtl

v -0.70868229866028 -0.24299520254135 1.55356228351593
v -0.70868229866028 0.2393192499876 1.55356228351593
v -0.70868229866028 -0.24299520254135 1.52076315879822
v -0.70868229866028 0.2393192499876 1.52076315879822
v -1.19270646572113 -0.24299520254135 1.52076315879822
v -1.19270646572113 0.2393192499876 1.52076315879822
v -1.19270646572113 -0.24299520254135 1.55356228351593
v -1.19270646572113 0.2393192499876 1.55356228351593
# 8 vertices

vn 1 0 0
vn 0 0 -1
vn -1 0 0
vn 0 0 1
vn 0 1 0
vn 0 -1 0
# 6 normals

vt 0 0 0
vt 0 1 0
vt 1 1 0
vt 1 0 0
# 4 texture coordinates

o glass
usemtl Glass
f 3/4/1 4/3/1 2/2/1 1/1/1
f 5/4/2 6/3/2 4/2/2 3/1/2
f 7/4/3 8/3/3 6/2/3 5/1/3
f 1/4/4 2/3/4 8/2/4 7/1/4
f 4/4/5 6/3/5 8/2/5 2/1/5
f 5/4/6 3/3/6 1/2/6 7/1/6

v 0.65754127502441 -0.24299520254135 1.55356228351593
v 0.65754127502441 0.2393192499876 1.55356228351593
v 0.65754127502441 -0.24299520254135 1.52076315879822
v 0.65754127502441 0.2393192499876 1.52076315879822
v 0.17351706326008 -0.24299520254135 1.52076315879822
v 0.17351706326008 0.2393192499876 1.52076315879822
v 0.17351706326008 -0.24299520254135 1.55356228351593
v 0.17351706326008 0.2393192499876 1.55356228351593
# 8 vertices

# 0 normal

# 0 texture coordinate

o glass_1
usemtl Glass
f 11/4/1 12/3/1 10/2/1 9/1/1
f 13/4/2 14/3/2 12/2/2 11/1/2
f 15/4/3 16/3/3 14/2/3 13/1/3
f 9/4/4 10/3/4 16/2/4 15/1/4
f 12/4/5 14/3/5 16/2/5 10/1/5
f 13/4/6 11/3/6 9/2/6 15/1/6

v 1.23382830619812 -0.24299520254135 1.55356228351593
v 1.23382830619812 0.2393192499876 1.55356228351593
v 1.23382830619812 -0.24299520254135 1.52076315879822
v 1.23382830619812 0.2393192499876 1.52076315879822
v 0.74980413913727 -0.24299520254135 1.52076315879822
v 0.74980413913727 0.2393192499876 1.52076315879822
v 0.74980413913727 -0.24299520254135 1.55356228351593
v 0.74980413913727 0.2393192499876 1.55356228351593
# 8 vertices

# 0 normal

# 0 texture coordinate

o glass_2
usemtl Glass
f 19/4/1 20/3/1 18/2/1 17/1/1
f 21/4/2 22/3/2 20/2/2 19/1/2
f 23/4/3 24/3/3 22/2/3 21/1/3
f 17/4/4 18/3/4 24/2/4 23/1/4
f 20/4/5 22/3/5 24/2/5 18/1/5
f 21/4/6 19/3/6 17/2/6 23/1/6

v 1.8698855638504 0.94599425792694 -0.16015520691872
v 1.8698855638504 1.35336339473724 -0.16015520691872
v 1.90268468856812 0.94599425792694 -0.16015520691872
v 1.90268468856812 1.35336339473724 -0.16015520691872
v 1.90268468856812 0.94599425792694 -0.57363319396973
v 1.90268468856812 1.35336339473724 -0.57363319396973
v 1.8698855638504 0.94599425792694 -0.57363319396973
v 1.8698855638504 1.35336339473724 -0.57363319396973
# 8 vertices

# 0 normal

# 0 texture coordinate

o glass_3
usemtl Glass
f 27/4/4 28/3/4 26/2/4 25/1/4
f 29/4/1 30/3/1 28/2/1 27/1/1
f 31/4/2 32/3/2 30/2/2 29/1/2
f 25/4/3 26/3/3 32/2/3 31/1/3
f 28/4/5 30/3/5 32/2/5 26/1/5
f 29/4/6 27/3/6 25/2/6 31/1/6

v 1.8698855638504 0.91706734895706 0.65239435434341
v 1.8698855638504 1.38229024410248 0.65239435434341
v 1.90268468856812 0.91706734895706 0.65239435434341
v 1.90268468856812 1.38229024410248 0.65239435434341
v 1.90268468856812 0.91706734895706 0.17236864566803
v 1.90268468856812 1.38229024410248 0.17236864566803
v 1.8698855638504 0.91706734895706 0.17236864566803
v 1.8698855638504 1.38229024410248 0.17236864566803
# 8 vertices

# 0 normal

# 0 texture coordinate

o glass_4
usemtl Glass
f 35/4/4 36/3/4 34/2/4 33/1/4
f 37/4/1 38/3/1 36/2/1 35/1/1
f 39/4/2 40/3/2 38/2/2 37/1/2
f 33/4/3 34/3/3 40/2/3 39/1/3
f 36/4/5 38/3/5 40/2/5 34/1/5
f 37/4/6 35/3/6 33/2/6 39/1/6

v 1.8698855638504 -0.28601774573326 1.11325514316559
v 1.8698855638504 0.22666661441326 1.11325514316559
v 1.90268468856812 -0.28601774573326 1.11325514316559
v 1.90268468856812 0.22666661441326 1.11325514316559
v 1.90268468856812 -0.28601774573326 0.39490950107574
v 1.90268468856812 0.22666661441326 0.39490950107574
v 1.8698855638504 -0.28601774573326 0.39490950107574
v 1.8698855638504 0.22666661441326 0.39490950107574
# 8 vertices

# 0 normal

# 0 texture coordinate

o glass_5
usemtl Glass
f 43/4/4 44/3/4 42/2/4 41/1/4
f 45/4/1 46/3/1 44/2/1 43/1/1
f 47/4/2 48/3/2 46/2/2 45/1/2
f 41/4/3 42/3/3 48/2/3 47/1/3
f 44/4/5 46/3/5 48/2/5 42/1/5
f 45/4/6 43/3/6 41/2/6 47/1/6

