# WaveFront *.obj file (generated by CINEMA 4D)

mtllib ./light_all.mtl

v -1.54411816596985 1.44843423366547 1.26772320270538
v -1.54411816596985 -0.34010490775108 1.26772320270538
v 1.23023676872253 1.44843423366547 1.26772320270538
v 1.23023676872253 -0.34010490775108 1.26772320270538
# 4 vertices

vn 0 -0 1
# 1 normal

vt 0 0 0
vt 0 1 0
vt 1 1 0
vt 1 0 0
# 4 texture coordinates

o light
usemtl default
f 2/4/1 4/3/1 3/2/1 1/1/1

v 1.1020655632019 1.45487356185913 1.18049108982086
v 1.30959618091583 -0.32158455252647 1.18049108982086
v 1.1020655632019 1.45487356185913 -1.37382352352142
v 1.30959618091583 -0.32158455252647 -1.37382352352142
# 4 vertices

vn 0.99324530363083 0.11603353172541 0
# 1 normal

# 0 texture coordinate

o light_1
usemtl default
f 6/4/2 8/3/2 7/2/2 5/1/2

v 12.51076412200928 4.93160724639893 13.75031757354736
v 11.17775440216064 10.37901592254639 13.1420841217041
v 15.93175888061523 5.09544992446899 7.72023487091064
v 14.59874820709229 10.5428581237793 7.11200046539307
# 4 vertices

vn -0.83714318275452 -0.25866669416428 -0.4819572865963
# 1 normal

# 0 texture coordinate

o light_2
usemtl default
f 10/4/3 12/3/3 11/2/3 9/1/3

