# WaveFront *.obj file (generated by CINEMA 4D)

mtllib ./roof.mtl

v -3.05361533164978 1.04267013072968 2.02373504638672
v -3.05361533164978 1.80615091323853 0.02433318831027
v -3.05361533164978 1.00175607204437 -2.04983377456665
v -3.05361533164978 0.94439750909805 -2.0243136882782
v -3.05361533164978 1.71758055686951 0.00269409106113
v -3.05361533164978 0.98985242843628 2.00758004188538
v 2.97638463973999 1.04267013072968 2.02373504638672
v 2.97638463973999 1.80615091323853 0.02433318831027
v 2.97638463973999 1.00175607204437 -2.04983377456665
v 2.97638463973999 0.94439750909805 -2.0243136882782
v 2.97638463973999 1.71758055686951 0.00269409106113
v 2.97638463973999 0.98985242843628 2.00758004188538
# 12 vertices

vn 0 0.93420702219009 0.35673126578331
vn 0 0.93234223127365 -0.36157709360123
vn 0 -0.40650397539139 -0.91364902257919
vn 0 -0.9343358874321 0.35639360547066
vn 0 -0.93999224901199 -0.34119585156441
vn 0 -0.29248705506325 0.95626950263977
# 6 normals

vt 0 1 0
vt 0.24361437559128 1 0
vt 0.24361437559128 0 0
vt 0 0 0
vt 0.4968438744545 1 0
vt 0.4968438744545 0 0
vt 0.50398993492126 1 0
vt 0.50398993492126 0 0
vt 0.7509338259697 1 0
vt 0.7509338259697 0 0
vt 0.99371296167374 1 0
vt 0.99371296167374 0 0
vt 1 1 0
vt 1 0 0
# 14 texture coordinates

o Dach
usemtl dach
f 7/4/1 8/3/1 2/2/1 1/1/1
f 8/3/2 9/6/2 3/5/2 2/2/2
f 9/6/3 10/8/3 4/7/3 3/5/3
f 10/8/4 11/10/4 5/9/4 4/7/4
f 11/10/5 12/12/5 6/11/5 5/9/5
f 12/12/6 7/14/6 1/13/6 6/11/6

v -3.05361533164978 0.94439750909805 -2.0243136882782
# 1 vertex

vn -1 0 0
vn 0 0 0
# 2 normals

vt 0.00396580528468 1 0
vt 0.49613520503044 1 0
vt 0.49082314968109 1 0
vt 0.99373519420624 1 0
vt 1 1 0
# 5 texture coordinates

o Deckfläche_1
usemtl dach
f 1/1/7 5/16/7 6/15/7
f 1/1/7 2/17/7 5/16/7
f 3/19/7 13/18/7 5/16/7
f 2/17/7 3/19/7 5/16/7

v 2.97638463973999 0.94439750909805 -2.0243136882782
# 1 vertex

vn 1 0 0
# 1 normal

vt 0 0.8125769495964 0
vt 0.49082314968109 1 0
vt 0.49613520503044 0.97825729846954 0
vt 0.00396580528468 0.79961097240448 0
vt 1 0.80253314971924 0
vt 0.99373519420624 0.78845250606537 0
# 6 texture coordinates

o Deckfläche_2
usemtl dach
f 11/22/9 8/21/9 7/20/9
f 12/23/9 11/22/9 7/20/9
f 11/22/9 9/24/9 8/21/9
f 11/22/9 14/25/9 9/24/9

